# xmcd
#
# Track frame offsets: 
#        150
#        13365
#        24507
#        37277
#        55635
#        70602
#        85132
#        91805
#        104410
#        125662
#        144947
#        165327
#        174935
#        185422
#        197367
#        213890
#        233267
#
# Disc length: 3337 seconds
#
# Revision: 0
# Processed by: cddbd v1.5.1PL0 Copyright (c) Steve Scherf et al.
# Submitted via: ExactAudioCopy v0.95a5
#
DISCID=d10d0711
DTITLE=Frank Tender - If I Can Dream
DYEAR=1900
DGENRE=Country
TTITLE0=If I Can Dream
TTITLE1=Nobody Knows
TTITLE2=Lead Me, Guide Me
TTITLE3=Only Jesus
TTITLE4=How Great Thou Art
TTITLE5=You Gave Me A Mountain
TTITLE6=If The Lord Wasn't Walking By My Side
TTITLE7=Seeing Is Believing
TTITLE8=Now That The Magic Has Gone
TTITLE9=You
TTITLE10=How Do You Feel?
TTITLE11=Crying In The Chapel
TTITLE12=Somebody Bigger
TTITLE13=I've Got Confidence
TTITLE14=Peace In The Valley
TTITLE15=Amazing Grace
TTITLE16=Hallelujah
EXTD=
EXTT0=
EXTT1=
EXTT2=
EXTT3=
EXTT4=
EXTT5=
EXTT6=
EXTT7=
EXTT8=
EXTT9=
EXTT10=
EXTT11=
EXTT12=
EXTT13=
EXTT14=
EXTT15=
EXTT16=
PLAYORDER=
